#tb 0: 1/15
0,          0,          0,        1,    79360, 0x3b0a7d1b
0,          1,          1,        1,    79360, 0x740842c3
0,          2,          2,        1,    79360, 0x85160167
0,          3,          3,        1,    79360, 0xaf510e92
0,          4,          4,        1,    79360, 0x8e290bec
0,          5,          5,        1,    79360, 0x51e981b0
0,          6,          6,        1,    79360, 0x16e52c60
0,          7,          7,        1,    79360, 0x66e1e60a
0,          8,          8,        1,    79360, 0x40fa58f6
0,          9,          9,        1,    79360, 0x00388edd
0,         10,         10,        1,    79360, 0xc74f95bf
0,         11,         11,        1,    79360, 0xf446a3fd
0,         12,         12,        1,    79360, 0x27b5eb60
0,         13,         13,        1,    79360, 0xea9266a2
0,         14,         14,        1,    79360, 0x7b6a7907
0,         15,         15,        1,    79360, 0x2be7d946
0,         16,         16,        1,    79360, 0x61881ee4
0,         17,         17,        1,    79360, 0x9214bd4f
0,         18,         18,        1,    79360, 0xeb294afe
0,         19,         19,        1,    79360, 0xc861ad55
0,         20,         20,        1,    79360, 0x3d3b6220
